<svg width="16" height="17" viewBox="0 0 16 17" fill="none" xmlns="http://www.w3.org/2000/svg">
<g id="material-symbols:person">
<path id="Vector" d="M8.00002 8.49999C7.26669 8.49999 6.63891 8.23888 6.11669 7.71666C5.59447 7.19443 5.33335 6.56666 5.33335 5.83332C5.33335 5.09999 5.59447 4.47221 6.11669 3.94999C6.63891 3.42777 7.26669 3.16666 8.00002 3.16666C8.73335 3.16666 9.36113 3.42777 9.88335 3.94999C10.4056 4.47221 10.6667 5.09999 10.6667 5.83332C10.6667 6.56666 10.4056 7.19443 9.88335 7.71666C9.36113 8.23888 8.73335 8.49999 8.00002 8.49999ZM2.66669 13.8333V11.9667C2.66669 11.5889 2.76402 11.2415 2.95869 10.9247C3.15335 10.6078 3.41158 10.3662 3.73335 10.2C4.42224 9.85555 5.12224 9.5971 5.83335 9.42466C6.54446 9.25221 7.26669 9.16621 8.00002 9.16666C8.73335 9.16666 9.45558 9.25288 10.1667 9.42532C10.8778 9.59777 11.5778 9.85599 12.2667 10.2C12.5889 10.3667 12.8474 10.6084 13.042 10.9253C13.2367 11.2422 13.3338 11.5893 13.3334 11.9667V13.8333H2.66669Z" fill="black"/>
</g>
</svg>
