<svg width="195" height="26" viewBox="0 0 195 26" fill="none" xmlns="http://www.w3.org/2000/svg">
<path d="M15.4726 2.72273C15.4726 0.58315 13.4386 -0.0629619 11.733 0.0111821V0.201838C12.75 0.275982 13.5339 0.68907 13.5339 1.37755C13.5339 1.85419 13.1949 2.44734 12.1779 2.44734C11.3728 2.44734 10.038 1.9707 8.7879 1.55761C7.41071 1.08097 6.09708 0.63611 5.00592 0.63611C2.86598 0.63611 1.24514 2.22491 1.24514 4.19502C1.24514 5.78382 2.47402 6.33461 2.97192 6.53585L3.0037 6.46171C2.68589 6.24987 2.48461 6.01685 2.48461 5.33896C2.48461 4.76699 2.89777 4.00437 3.99952 4.00437C4.99533 4.00437 6.29836 4.44923 8.02515 4.93646C9.50827 5.34955 11.1079 5.74145 11.9978 5.85797V9.33214L10.324 10.7091L11.9978 12.1496V16.9054C11.1397 17.3927 10.1439 17.5515 9.2858 17.5515C7.69674 17.5515 6.2348 17.1067 5.02711 15.7721L9.54005 13.5795V6.06981L4.0313 8.52715C4.60336 7.06545 5.67333 5.97448 6.84924 5.26481L6.81746 5.18008C3.54399 6.06981 0.567139 9.06734 0.567139 12.7745C0.567139 17.2126 4.11605 20.5067 8.21583 20.5067C12.6546 20.5067 15.2607 17.0325 15.2183 13.3571H15.1336C14.4873 14.7658 13.4068 16.1004 12.1885 16.7995V12.1602L13.9365 10.7515L12.1885 9.34273V5.86856C13.8093 5.86856 15.4832 4.79877 15.4832 2.73333M6.18183 14.9671L4.89999 15.6132C4.11605 14.5964 3.59695 13.1559 3.59695 11.3023C3.59695 10.5396 3.6817 9.50161 3.93595 8.77076L6.20302 7.75393L6.17124 14.9565L6.18183 14.9671ZM26.8079 8.86609L25.9498 9.54398L23.3331 7.21374L20.3033 9.55457V0.509006L16.1823 3.35825C16.6591 3.51713 17.2311 3.77134 17.2311 4.87291V17.3821L15.8222 18.4519L15.9493 18.579L16.6591 18.0917L19.1168 20.3372L22.4115 18.1447L22.3055 17.9858L21.4686 18.5366L20.3245 17.3927V9.85115L21.1084 9.27918L22.9094 10.8468V17.4032C22.9094 21.5553 21.9877 22.4133 20.1232 23.0911V23.1971C23.2272 23.3242 26.0239 22.2756 26.0239 16.9584V9.80878L26.9562 9.04616L26.8291 8.88728L26.8079 8.86609ZM32.3378 20.3055L37.1156 16.4711L36.9885 16.2911L34.4884 18.2718L31.6174 16.0051V14.5964L36.5753 11.101L34.0752 7.21374L28.5664 10.2431V17.4456L27.4965 18.2824L27.6236 18.4413L28.6406 17.6363L32.3484 20.3266H32.3378V20.3055ZM31.6069 14.2998V8.84491L34.0116 12.6051L31.6069 14.2998ZM56.873 1.7059C56.873 1.36696 56.7882 1.08097 56.6611 0.68907H56.5869C56.2479 1.61057 55.8772 2.09781 54.8072 2.09781C53.8749 2.09781 53.1334 1.52584 52.7414 1.10216C52.7414 1.13393 49.6057 4.72462 49.6057 4.72462L49.7646 4.85173L50.6544 3.83489C51.3324 4.3539 51.9363 4.95765 53.4406 4.97883V14.1303L47.0208 3.00872C46.5229 2.17195 45.6648 0.922094 44.2028 0.922094C42.4761 0.922094 41.173 2.40497 41.3849 4.91528H41.4908C41.618 4.29035 41.9887 3.50654 42.7409 3.50654C43.3447 3.50654 43.8321 4.07851 44.1181 4.59752V8.17761C42.1371 8.17761 41.0141 9.09912 41.0141 10.6561C41.0141 11.3023 41.4908 12.711 42.8362 12.9546V12.8805C42.6561 12.7004 42.4761 12.5415 42.4761 12.1708C42.4761 11.5671 42.921 11.2387 43.7261 11.2387C43.8532 11.2387 44.0439 11.2705 44.1181 11.2917V15.931C41.7875 15.9627 39.9971 17.2338 39.9971 19.4369C39.9971 21.64 41.7981 22.4874 43.6731 22.3815V22.3073C42.4972 22.1802 41.8934 21.5765 41.8934 20.7185C41.8934 19.7864 42.5714 19.278 43.4295 19.278C44.2876 19.278 44.9444 19.8288 45.4953 20.4537L48.631 16.9266L48.5039 16.7995L47.6988 17.721C46.4911 16.6512 45.7177 16.1534 44.33 15.9415V4.94705L53.1863 20.3796H53.6631V5.00001C55.3581 4.89409 56.873 3.62305 56.873 1.7059ZM59.8498 20.2843L64.6276 16.45L64.5005 16.2699L62.0004 18.2506L59.1294 15.9839V14.5752L64.0873 11.0798L61.5872 7.19256L56.0784 10.2219V17.4244L55.0085 18.2612L55.1356 18.4201L56.1526 17.6151L59.8604 20.3055L59.8498 20.2843ZM59.1189 14.2786V8.82372L61.5236 12.5839L59.1189 14.2786ZM81.5988 8.43182L80.8678 8.9826L78.7809 7.20315L76.3549 9.39569L77.3507 10.3278V18.5048L74.8718 16.8101V10.1795L75.7299 9.57576L73.1768 7.20315L70.8038 9.39569L71.7996 10.3278V18.2294L71.6407 18.3353L69.31 16.6406V10.1477C69.31 8.63307 68.5473 8.18821 67.5833 7.59505C66.7781 7.09723 66.3544 6.63118 66.3544 5.86856C66.3544 5.03179 67.0854 4.69285 67.3184 4.56574C66.4815 4.53397 64.1615 5.37073 64.1085 7.48913C64.0767 8.58011 64.6064 9.05675 65.1573 9.57576C65.7082 10.0948 66.2273 10.5926 66.2273 11.5141V17.8799L65.1043 18.7696L65.2315 18.8967L66.3014 18.0599L69.0876 20.3266L71.7466 18.473L74.6705 20.3266L80.4123 16.9372V9.57576L81.6942 8.58011L81.5882 8.42123L81.5988 8.43182ZM100.826 2.24609L99.7353 3.24174L97.2776 1.10216L93.9617 3.76075V1.26104H93.7604V19.1933C93.4003 19.1403 92.6375 18.9285 91.8006 18.8014V3.79253C91.8006 2.70155 91.0167 1.1763 89.0568 1.1763C87.097 1.1763 85.8681 2.82865 85.8681 4.25857H85.9528C86.0588 3.61246 86.5037 3.0299 87.1499 3.0299C87.7962 3.0299 88.4 3.44299 88.4 4.91528V9.19445C86.5461 9.26859 85.4232 10.4231 85.4232 11.673C85.4232 12.3826 85.8681 13.7066 87.2771 13.7596V13.6537C86.8003 13.4524 86.705 13.2088 86.705 12.944C86.705 12.3191 87.3088 12.1072 88.1458 12.1072H88.347V19.0026C86.758 19.5534 86.0164 20.6232 86.0164 21.9472C86.0164 23.769 87.4783 25.1778 89.6183 25.1778C91.1332 25.1778 92.2032 24.913 93.5909 24.6058C94.7139 24.3728 95.9322 24.108 96.589 24.108C97.4259 24.108 97.7967 24.4787 97.7967 25.0719C97.7967 25.8345 97.5106 26.2158 97.0657 26.3535V26.4594C98.8666 26.1205 99.9154 25.0824 99.9154 23.4619C99.9154 21.8413 98.3264 20.7715 96.5466 20.7715C95.6249 20.7715 93.9617 21.0575 92.6057 21.3752C91.0908 21.7142 89.7878 21.8731 89.3111 21.8731C88.5483 21.8731 87.6161 21.5341 87.6161 20.5173C87.6161 19.5958 88.3788 18.8649 90.2539 18.8649C91.2709 18.8649 92.2667 19.0238 93.5168 19.3098C94.8516 19.5958 95.7627 19.9877 96.9068 19.9877C98.4959 19.9877 99.7777 19.4157 99.7777 17.0855V3.48536L100.954 2.41557L100.826 2.25669V2.24609ZM96.3347 9.42747C96.0487 9.74523 95.7097 9.99944 95.1588 9.99944C94.555 9.99944 94.2372 9.68168 93.9511 9.42747V4.03614L94.7351 3.41121L96.3241 4.76699V9.43806L96.3347 9.42747ZM96.3347 11.9801C96.0699 11.7153 95.7309 11.4823 95.1588 11.4823C94.5868 11.4823 94.1948 11.7683 93.9511 11.9801V9.68168C94.1842 9.88293 94.5762 10.2007 95.1588 10.2007C95.7415 10.2007 96.0805 9.93589 96.3347 9.68168V11.9801ZM96.3347 17.3821C96.3347 18.2718 95.8898 19.2674 94.7457 19.2674C94.5656 19.2674 94.1418 19.2357 93.9617 19.2145V12.2449C94.2266 12.0119 94.5656 11.6942 95.1694 11.6942C95.7203 11.6942 96.0275 11.959 96.3453 12.2449V17.3927L96.3347 17.3821ZM105.636 20.2843L110.965 16.969V9.71345L107.522 7.18197L102.193 10.2325V17.4138L101.144 18.2506L101.25 18.4095L102.108 17.6998L105.636 20.2843ZM105.244 16.5241V8.79195L107.903 10.7727V18.5048L105.244 16.5241ZM121.145 7.36203C120.732 7.64801 120.361 7.80689 119.969 7.80689C119.556 7.80689 119.037 7.54209 118.762 7.20315C118.762 7.23493 116.781 9.34273 116.781 9.34273L114.8 7.20315L111.569 9.44865L111.674 9.62872L112.533 9.05675L113.708 10.3384V17.3609L112.3 18.4307L112.427 18.5578L113.136 18.0705L115.774 20.316L119.111 18.1023L119.005 17.9434L118.147 18.4624L116.791 17.2338V9.5228C117.342 10.1265 117.967 10.6455 118.719 10.6455C120.075 10.6455 120.986 9.02497 121.145 7.35144M133.731 17.7422L132.735 18.3671L127.226 10.1477L127.512 9.75582C128.116 10.1159 128.656 10.6138 129.811 10.6138C130.966 10.6138 132.428 9.40629 132.555 7.19256C132.269 7.58446 131.697 8.05051 130.754 8.05051C130.076 8.05051 129.398 7.60565 128.985 7.19256L125.224 12.7216L130.214 20.316L133.837 17.9117L133.731 17.7316V17.7422ZM127.046 17.9434L126.209 18.4942L125.065 17.3503V0.509006L120.944 3.35825C121.421 3.51713 121.993 3.77134 121.993 4.87291V17.3821L120.584 18.4519L120.711 18.579L121.421 18.0917L123.879 20.3372L127.173 18.1447L127.067 17.9858L127.046 17.9434ZM151.295 2.70155C151.295 0.561966 149.261 -0.0841459 147.556 -0.0100019V0.201838C148.573 0.275982 149.356 0.68907 149.356 1.37755C149.356 1.85419 149.017 2.44734 148 2.44734C147.195 2.44734 145.861 1.9707 144.61 1.55761C143.233 1.08097 141.92 0.63611 140.829 0.63611C138.689 0.63611 137.068 2.22491 137.068 4.18443C137.068 5.77323 138.297 6.32401 138.795 6.52526L138.826 6.45112C138.508 6.23928 138.307 6.00625 138.307 5.32837C138.307 4.7564 138.72 3.99377 139.822 3.99377C140.818 3.99377 142.121 4.43864 143.848 4.92587C145.331 5.33896 146.931 5.73086 147.82 5.84737V9.32155L146.147 10.6985L147.82 12.139V16.8948C146.962 17.3821 145.966 17.5409 145.108 17.5409C143.519 17.5409 142.047 17.0961 140.85 15.7615L145.363 13.5689V6.06981L139.854 8.52715C140.426 7.06545 141.496 5.97448 142.672 5.26481L142.64 5.18008C139.377 6.06981 136.4 9.06734 136.4 12.7745C136.4 17.2126 139.949 20.5067 144.049 20.5067C148.488 20.5067 151.094 17.0325 151.052 13.3571H150.977C150.331 14.7658 149.251 16.1004 148.032 16.7995V12.1602L149.78 10.7515L148.032 9.34273V5.86856C149.653 5.86856 151.327 4.79877 151.327 2.73333M142.026 14.9777L140.744 15.6238C139.96 14.607 139.441 13.1664 139.441 11.3128C139.441 10.5502 139.515 9.5122 139.78 8.78136L142.047 7.76453L142.015 14.9671L142.026 14.9777ZM154.664 1.93893L152.365 3.86667L154.325 6.0804L156.624 4.15265L154.664 1.93893ZM158.16 17.9858L157.323 18.5366L156.179 17.3927V9.79819L157.143 9.03556L157.016 8.87669L156.211 9.50161L154.304 7.23493L151.168 9.42747L151.274 9.60753L152.058 9.08852L153.107 10.3913V17.3927L151.698 18.4624L151.825 18.5895L152.535 18.1023L154.992 20.3478L158.287 18.1553L158.181 17.9964L158.16 17.9858ZM175.777 17.8799L174.993 18.3989L173.765 17.2232V9.777L174.76 9.01438L174.633 8.8555L173.743 9.53339L171.127 7.20315L168.182 9.50161L165.597 7.20315L162.694 9.46984L160.734 7.20315L157.598 9.39569L157.704 9.57576L158.488 9.05675L159.611 10.3384V17.3397L158.753 18.1976L161.253 20.316L163.679 18.1235L162.683 17.1914V9.73464L163.33 9.258L165.131 10.8256V17.3503L164.294 18.2082L166.826 20.3266L169.199 18.1341L168.203 17.202V9.74523L168.828 9.2474L170.65 10.8362V17.255L169.919 18.0176L172.472 20.3478L175.841 18.0494L175.735 17.8905H175.756L175.777 17.8799ZM184.888 16.2911L182.388 18.2718L179.517 16.0051V14.5964L184.475 11.101L181.975 7.21374L176.466 10.2431V17.5833L180.248 20.3266L185.026 16.4923L184.899 16.3123L184.888 16.2911ZM179.506 14.2998V8.84491L181.911 12.6051L179.506 14.2998ZM194.465 13.2724L192.346 11.6518C193.755 10.4231 194.253 8.86609 194.253 7.74334C194.253 7.58446 194.221 7.29848 194.2 7.03368H194.115C193.914 7.60565 193.352 8.10347 192.494 8.10347C191.636 8.10347 191.159 7.62683 190.64 7.05486L185.788 9.74523V13.6855L187.642 15.1471C185.788 16.7889 185.428 17.8057 185.428 18.7484C185.428 19.6911 185.979 20.5173 186.922 20.888L186.996 20.7609C186.763 20.5597 186.551 20.422 186.551 19.9241C186.551 19.564 186.922 18.992 187.759 18.992C188.829 18.992 189.486 19.7229 189.825 20.1148C189.825 20.083 194.465 17.2655 194.465 17.2655V13.2724ZM193.374 10.0418C192.643 11.3446 191.032 12.6263 190.079 13.3571L188.903 12.3615V8.52715C189.38 9.57576 190.344 10.4549 191.594 10.4549C192.325 10.4549 192.802 10.3278 193.363 10.0418M191.35 18.6531C190.799 17.4244 189.623 16.5347 188.32 16.5347C188.003 16.5347 187.038 16.5029 186.202 17.0219C186.699 16.1852 188.183 14.6811 190.068 13.5478L191.35 14.6175V18.6425V18.6531Z" fill="black"/>
</svg>
