<svg width="23" height="23" viewBox="0 0 23 23" fill="none" xmlns="http://www.w3.org/2000/svg">
<g id="Frame">
<path id="Vector" d="M21.8378 6.66195H18.5391C18.8853 6.27095 19.1359 5.81095 19.2727 5.31645C19.4069 4.86944 19.4403 4.40058 19.3708 3.94047C19.3014 3.48035 19.1306 3.03932 18.8696 2.64615C18.6098 2.2507 18.2658 1.91125 17.8597 1.64962C17.4536 1.388 16.9943 1.20998 16.5115 1.127C15.5178 0.954667 14.4922 1.14525 13.6401 1.6606C13.1466 1.99565 12.7282 2.42069 12.4094 2.91094C12.0906 3.40119 11.8777 3.94683 11.7832 4.51605L11.6125 5.4326L11.4406 4.45855C11.3451 3.89555 11.1328 3.35617 10.8161 2.87172C10.4994 2.38726 10.0846 1.96739 9.59574 1.63645C8.74364 1.1211 7.71808 0.930517 6.72437 1.10285C6.24155 1.18589 5.78235 1.36394 5.37624 1.62556C4.97014 1.88718 4.62612 2.22659 4.36627 2.622C4.10558 3.01508 3.93495 3.45591 3.8655 3.91579C3.79604 4.37567 3.82932 4.8443 3.96316 5.29115C4.10479 5.7845 4.35537 6.24335 4.69674 6.6378H1.39806C1.156 6.64078 0.924733 6.73345 0.753555 6.89607C0.582378 7.05869 0.484825 7.27839 0.481689 7.50835V11.7335C0.484825 11.9634 0.582378 12.1831 0.753555 12.3457C0.924733 12.5083 1.156 12.601 1.39806 12.604H1.91132V21.2635C1.91132 21.5714 2.03997 21.8666 2.26899 22.0844C2.49802 22.3022 2.80869 22.4247 3.13274 22.425H20.2375C20.5513 22.4254 20.8533 22.3111 21.0809 22.1058C21.3085 21.9005 21.4443 21.6199 21.4601 21.3222V12.6282H21.9734C22.2163 12.6278 22.4492 12.536 22.621 12.3728C22.7928 12.2096 22.8894 11.9884 22.8897 11.7576V7.5325C22.8908 7.40672 22.8632 7.28221 22.8088 7.1675C22.7545 7.05279 22.6747 6.9506 22.5749 6.86792C22.4751 6.78525 22.3577 6.72404 22.2306 6.68848C22.1036 6.65293 21.9688 6.64388 21.8378 6.66195ZM13.1268 4.7932C13.2447 4.00172 13.6835 3.28533 14.3495 2.7968C14.916 2.45738 15.5947 2.32916 16.2548 2.43685C16.5544 2.4887 16.8394 2.59909 17.0918 2.76102C17.3441 2.92295 17.5583 3.13289 17.7208 3.37755C17.8789 3.6257 17.9821 3.90183 18.0241 4.18911C18.0661 4.4764 18.0461 4.7688 17.9653 5.0485C17.8007 5.60121 17.4429 6.08424 16.9509 6.41815H12.7976L13.1268 4.7932ZM5.53927 3.3189C5.70433 3.07411 5.9208 2.86431 6.17512 2.70264C6.42945 2.54098 6.71616 2.43092 7.01732 2.37935C7.67393 2.2732 8.34867 2.4014 8.91179 2.7393C9.2436 2.9795 9.52235 3.27943 9.73213 3.62197C9.94191 3.96452 10.0786 4.34296 10.1344 4.7357L10.4274 6.40665H6.27285C5.78107 6.07303 5.42334 5.59044 5.25843 5.03815C5.17029 4.75128 5.14652 4.45002 5.18864 4.15387C5.23076 3.85772 5.33784 3.57327 5.50295 3.3189H5.53927ZM1.87379 7.9626H11.0012V11.3735H1.82537L1.87379 7.9626ZM3.30343 12.7098H11.0012V21.0899H3.30343V12.7098ZM19.9808 21.0899H12.2964V12.6868H19.9808V21.0899ZM21.4105 11.3517H12.2952V7.9396H21.4105V11.3505V11.3517Z" fill="#121212"/>
</g>
</svg>
