<svg width="195" height="26" viewBox="0 0 195 26" fill="none" xmlns="http://www.w3.org/2000/svg">
<path d="M15.4726 2.72215C15.4726 0.58257 13.4386 -0.0635418 11.733 0.0106022V0.201258C12.75 0.275402 13.5339 0.68849 13.5339 1.37697C13.5339 1.85361 13.1949 2.44676 12.1779 2.44676C11.3728 2.44676 10.038 1.97012 8.7879 1.55703C7.41071 1.08039 6.09708 0.63553 5.00592 0.63553C2.86598 0.63553 1.24514 2.22433 1.24514 4.19444C1.24514 5.78324 2.47402 6.33403 2.97192 6.53527L3.0037 6.46113C2.68589 6.24929 2.48461 6.01627 2.48461 5.33838C2.48461 4.76641 2.89777 4.00379 3.99952 4.00379C4.99533 4.00379 6.29836 4.44865 8.02515 4.93588C9.50827 5.34897 11.1079 5.74087 11.9978 5.85739V9.33156L10.324 10.7085L11.9978 12.149V16.9048C11.1397 17.3921 10.1439 17.551 9.2858 17.551C7.69674 17.551 6.2348 17.1061 5.02711 15.7715L9.54005 13.579V6.06923L4.0313 8.52657C4.60336 7.06487 5.67333 5.9739 6.84924 5.26423L6.81746 5.1795C3.54399 6.06923 0.567139 9.06676 0.567139 12.774C0.567139 17.212 4.11605 20.5061 8.21583 20.5061C12.6546 20.5061 15.2607 17.0319 15.2183 13.3565H15.1336C14.4873 14.7653 13.4068 16.0998 12.1885 16.7989V12.1596L13.9365 10.7509L12.1885 9.34215V5.86798C13.8093 5.86798 15.4832 4.79819 15.4832 2.73275M6.18183 14.9665L4.89999 15.6126C4.11605 14.5958 3.59695 13.1553 3.59695 11.3017C3.59695 10.539 3.6817 9.50103 3.93595 8.77018L6.20302 7.75335L6.17124 14.9559L6.18183 14.9665ZM26.8079 8.86551L25.9498 9.5434L23.3331 7.21316L20.3033 9.55399V0.508426L16.1823 3.35767C16.6591 3.51655 17.2311 3.77076 17.2311 4.87233V17.3815L15.8222 18.4513L15.9493 18.5784L16.6591 18.0911L19.1168 20.3366L22.4115 18.1441L22.3055 17.9852L21.4686 18.536L20.3245 17.3921V9.85057L21.1084 9.2786L22.9094 10.8462V17.4027C22.9094 21.5547 21.9877 22.4127 20.1232 23.0906V23.1965C23.2272 23.3236 26.0239 22.275 26.0239 16.9578V9.8082L26.9562 9.04558L26.8291 8.8867L26.8079 8.86551ZM32.3378 20.3049L37.1156 16.4706L36.9885 16.2905L34.4884 18.2712L31.6174 16.0045V14.5958L36.5753 11.1004L34.0752 7.21316L28.5664 10.2425V17.445L27.4965 18.2818L27.6236 18.4407L28.6406 17.6357L32.3484 20.3261H32.3378V20.3049ZM31.6069 14.2992V8.84433L34.0116 12.6045L31.6069 14.2992ZM56.873 1.70532C56.873 1.36638 56.7882 1.08039 56.6611 0.68849H56.5869C56.2479 1.60999 55.8772 2.09723 54.8072 2.09723C53.8749 2.09723 53.1334 1.52526 52.7414 1.10158C52.7414 1.13335 49.6057 4.72404 49.6057 4.72404L49.7646 4.85115L50.6544 3.83431C51.3324 4.35332 51.9363 4.95707 53.4406 4.97825V14.1297L47.0208 3.00814C46.5229 2.17137 45.6648 0.921514 44.2028 0.921514C42.4761 0.921514 41.173 2.40439 41.3849 4.9147H41.4908C41.618 4.28977 41.9887 3.50596 42.7409 3.50596C43.3447 3.50596 43.8321 4.07793 44.1181 4.59694V8.17703C42.1371 8.17703 41.0141 9.09854 41.0141 10.6556C41.0141 11.3017 41.4908 12.7104 42.8362 12.954V12.8799C42.6561 12.6998 42.4761 12.5409 42.4761 12.1702C42.4761 11.5665 42.921 11.2381 43.7261 11.2381C43.8532 11.2381 44.0439 11.2699 44.1181 11.2911V15.9304C41.7875 15.9622 39.9971 17.2332 39.9971 19.4363C39.9971 21.6395 41.7981 22.4868 43.6731 22.3809V22.3068C42.4972 22.1797 41.8934 21.5759 41.8934 20.718C41.8934 19.7859 42.5714 19.2774 43.4295 19.2774C44.2876 19.2774 44.9444 19.8282 45.4953 20.4532L48.631 16.926L48.5039 16.7989L47.6988 17.7204C46.4911 16.6506 45.7177 16.1528 44.33 15.941V4.94647L53.1863 20.379H53.6631V4.99943C55.3581 4.89351 56.873 3.62247 56.873 1.70532ZM59.8498 20.2837L64.6276 16.4494L64.5005 16.2693L62.0004 18.25L59.1294 15.9833V14.5746L64.0873 11.0792L61.5872 7.19198L56.0784 10.2213V17.4238L55.0085 18.2606L55.1356 18.4195L56.1526 17.6145L59.8604 20.3049L59.8498 20.2837ZM59.1189 14.278V8.82315L61.5236 12.5833L59.1189 14.278ZM81.5988 8.43124L80.8678 8.98202L78.7809 7.20257L76.3549 9.39511L77.3507 10.3272V18.5042L74.8718 16.8095V10.1789L75.7299 9.57518L73.1768 7.20257L70.8038 9.39511L71.7996 10.3272V18.2288L71.6407 18.3348L69.31 16.64V10.1471C69.31 8.63249 68.5473 8.18763 67.5833 7.59447C66.7781 7.09665 66.3544 6.6306 66.3544 5.86798C66.3544 5.03121 67.0854 4.69227 67.3184 4.56516C66.4815 4.53339 64.1615 5.37015 64.1085 7.48855C64.0767 8.57953 64.6064 9.05617 65.1573 9.57518C65.7082 10.0942 66.2273 10.592 66.2273 11.5135V17.8793L65.1043 18.769L65.2315 18.8961L66.3014 18.0594L69.0876 20.3261L71.7466 18.4725L74.6705 20.3261L80.4123 16.9366V9.57518L81.6942 8.57953L81.5882 8.42065L81.5988 8.43124ZM100.826 2.24551L99.7353 3.24116L97.2776 1.10158L93.9617 3.76017V1.26046H93.7604V19.1927C93.4003 19.1398 92.6375 18.9279 91.8006 18.8008V3.79195C91.8006 2.70097 91.0167 1.17572 89.0568 1.17572C87.097 1.17572 85.8681 2.82807 85.8681 4.25799H85.9528C86.0588 3.61188 86.5037 3.02932 87.1499 3.02932C87.7962 3.02932 88.4 3.44241 88.4 4.9147V9.19387C86.5461 9.26801 85.4232 10.4225 85.4232 11.6724C85.4232 12.3821 85.8681 13.7061 87.2771 13.759V13.6531C86.8003 13.4518 86.705 13.2082 86.705 12.9434C86.705 12.3185 87.3088 12.1067 88.1458 12.1067H88.347V19.0021C86.758 19.5528 86.0164 20.6226 86.0164 21.9466C86.0164 23.7685 87.4783 25.1772 89.6183 25.1772C91.1332 25.1772 92.2032 24.9124 93.5909 24.6052C94.7139 24.3722 95.9322 24.1074 96.589 24.1074C97.4259 24.1074 97.7967 24.4781 97.7967 25.0713C97.7967 25.8339 97.5106 26.2152 97.0657 26.3529V26.4588C98.8666 26.1199 99.9154 25.0819 99.9154 23.4613C99.9154 21.8407 98.3264 20.7709 96.5466 20.7709C95.6249 20.7709 93.9617 21.0569 92.6057 21.3747C91.0908 21.7136 89.7878 21.8725 89.3111 21.8725C88.5483 21.8725 87.6161 21.5335 87.6161 20.5167C87.6161 19.5952 88.3788 18.8644 90.2539 18.8644C91.2709 18.8644 92.2667 19.0232 93.5168 19.3092C94.8516 19.5952 95.7627 19.9871 96.9068 19.9871C98.4959 19.9871 99.7777 19.4151 99.7777 17.0849V3.48478L100.954 2.41499L100.826 2.25611V2.24551ZM96.3347 9.42689C96.0487 9.74465 95.7097 9.99886 95.1588 9.99886C94.555 9.99886 94.2372 9.6811 93.9511 9.42689V4.03556L94.7351 3.41063L96.3241 4.76641V9.43748L96.3347 9.42689ZM96.3347 11.9796C96.0699 11.7148 95.7309 11.4817 95.1588 11.4817C94.5868 11.4817 94.1948 11.7677 93.9511 11.9796V9.6811C94.1842 9.88235 94.5762 10.2001 95.1588 10.2001C95.7415 10.2001 96.0805 9.93531 96.3347 9.6811V11.9796ZM96.3347 17.3815C96.3347 18.2712 95.8898 19.2669 94.7457 19.2669C94.5656 19.2669 94.1418 19.2351 93.9617 19.2139V12.2444C94.2266 12.0113 94.5656 11.6936 95.1694 11.6936C95.7203 11.6936 96.0275 11.9584 96.3453 12.2444V17.3921L96.3347 17.3815ZM105.636 20.2837L110.965 16.9684V9.71287L107.522 7.18139L102.193 10.2319V17.4133L101.144 18.25L101.25 18.4089L102.108 17.6992L105.636 20.2837ZM105.244 16.5235V8.79137L107.903 10.7721V18.5042L105.244 16.5235ZM121.145 7.36145C120.732 7.64743 120.361 7.80631 119.969 7.80631C119.556 7.80631 119.037 7.54151 118.762 7.20257C118.762 7.23435 116.781 9.34215 116.781 9.34215L114.8 7.20257L111.569 9.44807L111.674 9.62814L112.533 9.05617L113.708 10.3378V17.3603L112.3 18.4301L112.427 18.5572L113.136 18.07L115.774 20.3155L119.111 18.1017L119.005 17.9429L118.147 18.4619L116.791 17.2332V9.52222C117.342 10.126 117.967 10.645 118.719 10.645C120.075 10.645 120.986 9.02439 121.145 7.35086M133.731 17.7416L132.735 18.3665L127.226 10.1471L127.512 9.75524C128.116 10.1154 128.656 10.6132 129.811 10.6132C130.966 10.6132 132.428 9.40571 132.555 7.19198C132.269 7.58388 131.697 8.04993 130.754 8.04993C130.076 8.04993 129.398 7.60507 128.985 7.19198L125.224 12.721L130.214 20.3155L133.837 17.9111L133.731 17.731V17.7416ZM127.046 17.9429L126.209 18.4936L125.065 17.3497V0.508426L120.944 3.35767C121.421 3.51655 121.993 3.77076 121.993 4.87233V17.3815L120.584 18.4513L120.711 18.5784L121.421 18.0911L123.879 20.3366L127.173 18.1441L127.067 17.9852L127.046 17.9429ZM151.295 2.70097C151.295 0.561386 149.261 -0.0847258 147.556 -0.0105818V0.201258C148.573 0.275402 149.356 0.68849 149.356 1.37697C149.356 1.85361 149.017 2.44676 148 2.44676C147.195 2.44676 145.861 1.97012 144.61 1.55703C143.233 1.08039 141.92 0.63553 140.829 0.63553C138.689 0.63553 137.068 2.22433 137.068 4.18385C137.068 5.77265 138.297 6.32343 138.795 6.52468L138.826 6.45054C138.508 6.2387 138.307 6.00567 138.307 5.32779C138.307 4.75582 138.72 3.99319 139.822 3.99319C140.818 3.99319 142.121 4.43806 143.848 4.92529C145.331 5.33838 146.931 5.73028 147.82 5.84679V9.32097L146.147 10.6979L147.82 12.1384V16.8942C146.962 17.3815 145.966 17.5404 145.108 17.5404C143.519 17.5404 142.047 17.0955 140.85 15.7609L145.363 13.5684V6.06923L139.854 8.52657C140.426 7.06487 141.496 5.9739 142.672 5.26423L142.64 5.1795C139.377 6.06923 136.4 9.06676 136.4 12.774C136.4 17.212 139.949 20.5061 144.049 20.5061C148.488 20.5061 151.094 17.0319 151.052 13.3565H150.977C150.331 14.7653 149.251 16.0998 148.032 16.7989V12.1596L149.78 10.7509L148.032 9.34215V5.86798C149.653 5.86798 151.327 4.79819 151.327 2.73275M142.026 14.9771L140.744 15.6232C139.96 14.6064 139.441 13.1659 139.441 11.3123C139.441 10.5496 139.515 9.51163 139.78 8.78078L142.047 7.76395L142.015 14.9665L142.026 14.9771ZM154.664 1.93835L152.365 3.86609L154.325 6.07982L156.624 4.15207L154.664 1.93835ZM158.16 17.9852L157.323 18.536L156.179 17.3921V9.79761L157.143 9.03498L157.016 8.87611L156.211 9.50103L154.304 7.23435L151.168 9.42689L151.274 9.60695L152.058 9.08795L153.107 10.3908V17.3921L151.698 18.4619L151.825 18.589L152.535 18.1017L154.992 20.3472L158.287 18.1547L158.181 17.9958L158.16 17.9852ZM175.777 17.8793L174.993 18.3983L173.765 17.2226V9.77642L174.76 9.0138L174.633 8.85492L173.743 9.53281L171.127 7.20257L168.182 9.50103L165.597 7.20257L162.694 9.46926L160.734 7.20257L157.598 9.39511L157.704 9.57518L158.488 9.05617L159.611 10.3378V17.3391L158.753 18.1971L161.253 20.3155L163.679 18.1229L162.683 17.1908V9.73406L163.33 9.25742L165.131 10.825V17.3497L164.294 18.2077L166.826 20.3261L169.199 18.1335L168.203 17.2014V9.74465L168.828 9.24682L170.65 10.8356V17.2544L169.919 18.017L172.472 20.3472L175.841 18.0488L175.735 17.8899H175.756L175.777 17.8793ZM184.888 16.2905L182.388 18.2712L179.517 16.0045V14.5958L184.475 11.1004L181.975 7.21316L176.466 10.2425V17.5827L180.248 20.3261L185.026 16.4918L184.899 16.3117L184.888 16.2905ZM179.506 14.2992V8.84433L181.911 12.6045L179.506 14.2992ZM194.465 13.2718L192.346 11.6512C193.755 10.4225 194.253 8.86551 194.253 7.74276C194.253 7.58388 194.221 7.2979 194.2 7.0331H194.115C193.914 7.60507 193.352 8.10289 192.494 8.10289C191.636 8.10289 191.159 7.62625 190.64 7.05428L185.788 9.74465V13.6849L187.642 15.1466C185.788 16.7883 185.428 17.8052 185.428 18.7478C185.428 19.6905 185.979 20.5167 186.922 20.8874L186.996 20.7603C186.763 20.5591 186.551 20.4214 186.551 19.9236C186.551 19.5634 186.922 18.9915 187.759 18.9915C188.829 18.9915 189.486 19.7223 189.825 20.1142C189.825 20.0824 194.465 17.265 194.465 17.265V13.2718ZM193.374 10.0412C192.643 11.344 191.032 12.6257 190.079 13.3565L188.903 12.3609V8.52657C189.38 9.57518 190.344 10.4543 191.594 10.4543C192.325 10.4543 192.802 10.3272 193.363 10.0412M191.35 18.6525C190.799 17.4238 189.623 16.5341 188.32 16.5341C188.003 16.5341 187.038 16.5023 186.202 17.0214C186.699 16.1846 188.183 14.6805 190.068 13.5472L191.35 14.617V18.6419V18.6525Z" fill="black"/>
</svg>
