<svg width="23" height="23" viewBox="0 0 23 23" fill="none" xmlns="http://www.w3.org/2000/svg">
<g id="SVG">
<path id="Vector" d="M15.903 22.784L9.64368 16.9765H2.62868C2.41745 16.9765 2.20829 16.928 2.01315 16.8336C1.81801 16.7393 1.64071 16.601 1.4914 16.4267C1.34209 16.2524 1.22368 16.0454 1.14295 15.8177C1.06221 15.59 1.02073 15.3459 1.02087 15.0995V2.4201C1.01827 2.17166 1.05791 1.92508 1.1375 1.69462C1.21709 1.46417 1.33505 1.25441 1.48457 1.07748C1.63408 0.90055 1.81218 0.759959 2.00857 0.663838C2.20495 0.567718 2.41572 0.517975 2.62868 0.517487H20.791C21.2177 0.517487 21.627 0.715247 21.9287 1.06726C22.2304 1.41928 22.3999 1.89672 22.3999 2.39454V15.0739C22.4001 15.3206 22.3585 15.565 22.2777 15.7929C22.1968 16.0209 22.0782 16.228 21.9287 16.4025C21.7792 16.5769 21.6016 16.7153 21.4062 16.8096C21.2108 16.904 21.0014 16.9524 20.7899 16.9523H15.9687L15.903 22.784ZM2.62868 2.10193C2.5958 2.10193 2.56324 2.10951 2.53287 2.12423C2.5025 2.13895 2.47492 2.16052 2.45172 2.18771C2.42852 2.2149 2.41015 2.24717 2.39766 2.28266C2.38518 2.31816 2.37882 2.35618 2.37897 2.39454V15.0739C2.37882 15.1123 2.38518 15.1503 2.39766 15.1858C2.41015 15.2213 2.42852 15.2536 2.45172 15.2808C2.47492 15.3079 2.5025 15.3295 2.53287 15.3442C2.56324 15.359 2.5958 15.3665 2.62868 15.3665H10.0883L14.535 19.5002V15.3665H20.7253C20.7583 15.3667 20.791 15.3593 20.8215 15.3446C20.8519 15.33 20.8797 15.3084 20.903 15.2812C20.9263 15.254 20.9448 15.2217 20.9573 15.1861C20.9699 15.1505 20.9763 15.1124 20.9761 15.0739V2.39454C20.9763 2.35607 20.9699 2.31794 20.9573 2.28236C20.9448 2.24679 20.9263 2.21446 20.903 2.18726C20.8797 2.16005 20.8519 2.13851 20.8215 2.12386C20.791 2.10922 20.7583 2.10176 20.7253 2.10193H2.62868Z" fill="#121212"/>
</g>
</svg>
