<svg width="23" height="23" viewBox="0 0 23 23" fill="none" xmlns="http://www.w3.org/2000/svg">
<g id="SVG">
<path id="Vector" d="M1.35699 19.692C1.25781 19.6913 1.16005 19.6684 1.07091 19.6249C0.981761 19.5815 0.903503 19.5186 0.841898 19.4408C0.780293 19.3631 0.736911 19.2725 0.714948 19.1758C0.692984 19.0791 0.692999 18.9787 0.714992 18.882C2.53499 10.927 6.91199 6.81399 13.046 7.20199V3.62699C13.0528 3.49092 13.0951 3.35902 13.1688 3.24444C13.2425 3.12985 13.345 3.0366 13.466 2.97399C13.5924 2.91479 13.7333 2.8933 13.8716 2.9121C14.0099 2.9309 14.1399 2.98919 14.246 3.07999L22.441 10.066C22.5949 10.2114 22.6857 10.4114 22.694 10.623C22.6795 10.8322 22.5854 11.028 22.431 11.17L14.235 18.125C14.1239 18.2055 13.9947 18.2572 13.8587 18.2756C13.7228 18.2939 13.5844 18.2782 13.456 18.23C13.3314 18.1693 13.2261 18.0752 13.1519 17.9581C13.0777 17.841 13.0376 17.7056 13.036 17.567V13.79C4.61799 12.885 2.06199 18.967 1.95599 19.24C1.91372 19.3674 1.8337 19.479 1.72654 19.5599C1.61937 19.6408 1.49014 19.6872 1.35599 19.693L1.35699 19.692ZM11.405 12.432C12.1791 12.4299 12.9524 12.4827 13.719 12.59C13.89 12.6256 14.0449 12.7155 14.1605 12.8464C14.2762 12.9772 14.3466 13.1419 14.361 13.316V16.336L21.063 10.654L14.361 4.96199V7.84499C14.3579 7.94586 14.3349 8.04513 14.2934 8.1371C14.2519 8.22908 14.1926 8.31196 14.119 8.38099C14.0443 8.44569 13.9574 8.49492 13.8635 8.52582C13.7696 8.55672 13.6705 8.56867 13.572 8.56099C8.76399 8.02399 5.20799 10.411 3.12399 15.483C5.37221 13.4071 8.34537 12.2964 11.404 12.39L11.405 12.432Z" fill="#121212"/>
</g>
</svg>
